<?xml version="1.0" encoding="utf-8"?>
<svg version="1.1" xmlns="http://www.w3.org/2000/svg" xmlns:xlink="http://www.w3.org/1999/xlink" x="0px" y="0px" viewBox="0 0 1000 1000" enable-background="new 0 0 1000 1000" xml:space="preserve">
<g><path fill="royalblue" d="M500,779.9c-25.7,0-52-1.6-79.3-4.4c-72.2,64-155.9,107.7-251.6,132.3c-18.1,4.9-38.8,9.3-62.3,12c-12.6,1.6-23.5-7.7-26.2-20.8v-0.5c-1.1-1.6-1.1-3.8-0.5-6.6c2.2-6,0-4.9,3.8-10.9l3.3-4.9l8.2-9.3l17-19.1c8.8-9.3,14.8-16.4,18.6-20.8c3.8-3.8,9.8-10.9,17-21.3c7.7-10.4,13.7-19.7,18-27.9c8.8-17,20.8-44.8,29-73.8c-57.4-32.3-102.3-72.7-135.6-120.3C26.4,536,10,484.6,10,429.9c0-47.6,13.1-92.4,38.8-135.6c25.7-43.2,60.7-80.9,104.5-112.1C197,151,249,125.8,309.7,107.8C370.4,89.2,433.8,79.9,500,79.9c89.1,0,171.2,15.9,246.1,47c74.9,31.2,134.5,73.3,178.3,127.4C968.1,308,990,366.5,990,429.9c0,63.4-21.9,122-65.6,176.1c-43.8,53.6-103.4,96.3-178.3,127.4C671.2,764.6,589.1,779.9,500,779.9z"/></g>
</svg>